<svg width="260" height="11" fill="none" xmlns="http://www.w3.org/2000/svg"><path fill-rule="evenodd" clip-rule="evenodd" d="M4.31 10.469c-.624-1.55 1.495-2.826 6.806-4.097 2.53-.598 7.59-.677 56.921-.677 64.68-.042 70.073-.12 49.786-.798-25.72-.877-44.349-1.392-68.037-1.833C7.967 2.308 0 1.91 0 .717c0-.956 71.98-.956 96.664 0C150.765 2.786 224.732 4.14 248.3 3.5c6.182-.157 11.368-.2 11.532 0 .745.636-.996 1.156-5.06 1.55-2.365.237-5.185.436-6.308.436-1.533 0-2.031.158-2.031.599 0 .357-.416.756-.915.955-.953.358-34.765 1.271-73.556 2.028-10.705.2-22.402.478-25.928.598-26.054.877-37.755.993-83.308.599-42.772-.358-49.206-.32-52.897.2-5.142.714-5.229.714-5.519 0v.004Z" fill="#ffcb05"/></svg>